<?xml version="1.0" encoding="iso-8859-1"?>
<!-- Generator: Adobe Illustrator 16.0.0, SVG Export Plug-In . SVG Version: 6.00 Build 0)  -->
<!DOCTYPE svg PUBLIC "-//W3C//DTD SVG 1.1//EN" "http://www.w3.org/Graphics/SVG/1.1/DTD/svg11.dtd">
<svg version="1.1" id="Capa_1" xmlns="http://www.w3.org/2000/svg" xmlns:xlink="http://www.w3.org/1999/xlink" x="0px" y="0px"
	 width="511.999px" height="511.999px" viewBox="0 0 511.999 511.999" style="enable-background:new 0 0 511.999 511.999;"
	 xml:space="preserve">
<g>
	<path d="M352,367.999H160c-8.844,0-16-7.156-16-16s7.156-16,16-16h192c8.844,0,16,7.156,16,16S360.844,367.999,352,367.999z
		 M368,399.999c0-8.844-7.156-16-16-16H160c-8.844,0-16,7.156-16,16s7.156,16,16,16h192C360.844,415.999,368,408.843,368,399.999z
		 M336,447.999c0-8.844-7.156-16-16-16H192c-8.844,0-16,7.156-16,16s7.156,16,16,16h128C328.844,463.999,336,456.843,336,447.999z
		 M138.719,316.187c6.563-5.905,7.094-16.03,1.156-22.594c-56.813-62.969-53.563-158.438,7.406-217.344
		c60.969-58.938,156.5-58.938,217.438,0c60.969,58.906,64.219,154.375,7.406,217.344c-5.938,6.563-5.406,16.688,1.156,22.594
		c6.562,5.906,16.688,5.375,22.594-1.155c68.438-75.845,64.531-190.845-8.906-261.781c-73.406-71-188.469-71-261.938,0
		c-73.438,70.938-77.344,185.938-8.906,261.781c3.156,3.5,7.5,5.28,11.875,5.28C131.813,320.312,135.656,318.937,138.719,316.187z
		 M304,495.999c0-8.844-7.156-16-16-16h-64c-8.844,0-16,7.156-16,16s7.156,16,16,16h64C296.844,511.999,304,504.843,304,495.999z"/>
</g>
<g>
</g>
<g>
</g>
<g>
</g>
<g>
</g>
<g>
</g>
<g>
</g>
<g>
</g>
<g>
</g>
<g>
</g>
<g>
</g>
<g>
</g>
<g>
</g>
<g>
</g>
<g>
</g>
<g>
</g>
</svg>
